<svg version="1.1" id="Layer_1" xmlns="http://www.w3.org/2000/svg" xmlns:xlink="http://www.w3.org/1999/xlink" x="0px" y="0px"
	 width="100%" viewBox="0 0 752 736" enable-background="new 0 0 752 736" xml:space="preserve">
<path fill="#ffffff" opacity="1.000000" stroke="none" 
	d="
M227.505127,653.677795 
	C202.209778,642.694763 178.942108,628.913635 157.602081,612.147400 
	C139.187088,597.679321 121.978149,581.850830 106.152870,564.429993 
	C88.062683,544.515808 71.954086,523.278320 59.725822,499.366791 
	C44.104717,468.820740 32.922173,436.682800 26.446321,402.856567 
	C22.214741,380.753174 20.284435,358.578552 20.654541,336.139709 
	C21.043989,312.528046 23.939169,289.256348 28.769182,266.111267 
	C33.339458,244.210785 40.501873,223.138580 49.129238,202.716415 
	C54.069016,191.023285 59.082436,178.879364 67.681229,168.926270 
	C69.822433,166.447830 71.567947,163.490982 72.923218,160.495209 
	C77.322388,150.771027 85.612579,143.904663 91.258759,135.202057 
	C104.223656,115.218864 122.651772,100.560852 139.616486,84.553841 
	C153.146957,71.787193 168.925400,61.719254 184.818298,52.030262 
	C214.667923,33.832649 246.647812,20.515400 280.563721,12.312412 
	C298.559265,7.959956 316.861542,4.738015 335.587158,4.551557 
	C355.405518,4.354218 375.222198,4.751943 394.967102,5.901219 
	C417.697235,7.224257 439.767303,12.703667 461.417175,19.769999 
	C494.290436,30.499557 525.038025,45.539738 553.161804,65.658134 
	C564.619263,73.854294 575.467102,82.864784 585.857483,92.488091 
	C601.605652,107.073601 615.953857,122.884514 628.900024,139.896622 
	C649.033142,166.352936 664.615662,195.398834 676.195740,226.592926 
	C684.411926,248.725525 689.754517,271.650238 695.316589,294.521423 
	C697.782104,304.659546 697.794861,304.689362 708.341064,304.638397 
	C711.816772,304.621582 715.294861,304.930237 718.747070,303.849243 
	C721.253662,303.064301 723.059631,304.130157 724.302429,306.683350 
	C726.762817,311.738007 726.707214,317.002075 725.987549,322.300507 
	C725.723755,324.242584 724.629944,325.953613 722.169556,326.326080 
	C709.898743,328.183746 697.668152,326.050385 685.419250,325.981018 
	C679.490173,325.947479 673.576782,324.735626 667.636902,324.400177 
	C664.419128,324.218506 662.957458,323.241608 662.571106,319.790222 
	C660.454102,300.879639 658.154175,282.015961 652.842590,263.618042 
	C647.816650,246.209244 642.020935,229.074142 633.841370,212.944443 
	C622.944702,191.456573 609.868042,171.308029 594.641174,152.532013 
	C582.668274,137.768356 569.678589,124.017830 555.394226,111.565193 
	C528.660522,88.259544 499.286774,69.266876 465.654388,57.144867 
	C443.105530,49.017666 420.011993,43.161480 396.398285,39.649986 
	C378.925507,37.051685 361.177216,38.661346 343.552399,38.336056 
	C330.902130,38.102570 318.302979,38.792435 305.966705,41.445332 
	C279.835327,47.064850 254.341553,54.620949 230.134018,66.345650 
	C202.286484,79.833351 177.405258,97.585747 153.701416,117.228699 
	C140.410034,128.243042 129.731934,141.584778 119.203979,155.076797 
	C105.986664,172.015335 94.289169,189.981506 85.392235,209.539154 
	C72.870171,237.065735 62.249592,265.248596 58.189449,295.530823 
	C56.421574,308.716339 55.097118,321.878815 55.338348,335.187012 
	C55.484947,343.274414 54.924454,351.336304 55.091343,359.457397 
	C55.538334,381.208771 59.601749,402.272827 65.097023,423.124023 
	C70.106270,442.131104 77.789513,460.135071 86.766075,477.618713 
	C96.438210,496.457062 108.173141,513.899231 121.449036,530.352478 
	C132.838821,544.468140 145.165588,557.698792 158.799072,569.666565 
	C176.916763,585.570679 196.167908,599.913635 217.318604,611.604858 
	C245.833237,627.366638 276.180298,638.105408 308.093933,644.360107 
	C322.622467,647.207520 337.385681,647.450928 352.192474,647.800476 
	C385.876556,648.595764 418.151245,642.078064 449.739502,631.121399 
	C463.721832,626.271423 477.492035,620.958374 489.541840,611.594971 
	C500.072327,620.292175 509.463623,629.693604 518.637024,639.753357 
	C498.269806,649.738525 477.891510,657.455017 457.154419,664.350220 
	C438.080292,670.692444 418.758148,675.845581 398.773224,678.192749 
	C392.519287,678.927185 386.191132,679.271667 379.892365,679.334473 
	C364.228943,679.490723 348.557373,679.118713 332.899231,679.445862 
	C312.918304,679.863342 293.738617,675.551758 274.660431,670.440796 
	C258.623260,666.144470 243.022400,660.579773 227.505127,653.677795 
z"/>
<path fill="#ffffff" opacity="1.000000" stroke="none" 
	d="
M288.058533,175.264832 
	C263.840240,185.116913 242.792480,199.026367 225.159698,217.883148 
	C207.450516,236.821625 194.807465,258.530304 186.859116,283.433197 
	C179.128403,307.654205 177.219650,332.245483 178.474319,357.221405 
	C179.752640,382.667999 187.056244,406.534393 200.718628,428.145935 
	C215.816589,452.028320 234.036438,473.233673 257.547363,489.237671 
	C276.588135,502.198822 297.045349,512.670166 319.873291,516.976929 
	C336.681274,520.147888 353.783234,520.503418 370.932129,518.948547 
	C377.129974,518.386536 383.109161,517.497681 388.890961,515.364197 
	C391.274231,514.484741 392.664520,515.321594 393.948334,517.148499 
	C397.837250,522.682495 403.552032,526.281128 408.454773,530.740601 
	C409.559540,531.745483 410.821106,532.584717 411.879303,533.632690 
	C417.005676,538.709534 416.347931,542.850342 409.831451,546.037781 
	C402.440125,549.653198 394.487396,551.610779 386.385712,552.182922 
	C378.616272,552.731689 370.826355,553.241455 363.016388,553.495605 
	C316.041229,555.024048 273.552826,542.391602 235.529999,514.603943 
	C207.559296,494.162567 183.234634,470.450562 167.435959,439.163666 
	C156.686829,417.876648 149.503662,395.430481 146.484009,371.610718 
	C144.760574,358.015961 143.807877,344.385681 144.845184,330.849335 
	C147.179840,300.383057 150.814301,270.095520 165.527100,242.432678 
	C174.532990,225.499908 185.310425,209.851166 198.672562,196.093521 
	C221.322968,172.772675 248.248993,155.727921 278.228485,143.573334 
	C294.851746,136.833755 312.128754,132.191452 330.131683,130.520508 
	C337.717529,129.816422 345.254211,128.681671 352.900452,128.640030 
	C372.890961,128.531158 392.518799,131.303452 411.902222,135.990784 
	C443.029724,143.518097 469.927246,159.008835 494.531097,179.181763 
	C514.268982,195.365067 530.974182,214.039886 544.114990,235.875534 
	C555.365295,254.569855 561.918701,275.044678 566.338196,296.274689 
	C568.028564,304.394836 569.317505,312.555939 569.400635,320.898651 
	C569.436401,324.489044 567.989990,325.716705 564.645630,325.338379 
	C556.577454,324.425720 548.532593,323.289703 540.381531,323.270630 
	C537.087891,323.262939 537.112549,320.371887 536.738281,318.215759 
	C534.555481,305.643005 532.014465,293.202972 527.817627,281.075623 
	C521.369385,262.442535 510.914734,246.182877 498.782471,230.967743 
	C487.274048,216.535004 473.969696,203.925232 458.610504,193.464020 
	C437.037933,178.770813 413.523224,168.998520 387.874573,164.410751 
	C377.597931,162.572586 367.207489,161.035919 356.748749,161.437576 
	C333.265778,162.339386 310.254730,165.876572 288.058533,175.264832 
z"/>
<path fill="#ffffff" opacity="1.000000" stroke="none" 
	d="
M118.325104,319.859619 
	C114.978683,357.891663 118.756950,394.495087 132.959839,429.716309 
	C142.916534,454.407684 156.641083,476.748169 174.007080,496.945190 
	C199.430008,526.512695 230.039993,549.237122 265.341614,565.401794 
	C284.031830,573.960083 303.601898,580.589600 324.288177,582.564270 
	C343.524536,584.400635 362.853973,583.506409 382.145416,583.657898 
	C384.291534,583.674744 386.450348,584.026672 388.563538,584.144043 
	C399.930267,584.775757 404.285370,598.094299 395.664703,607.402344 
	C391.182922,612.241455 385.319153,614.156189 379.082001,614.263306 
	C363.593872,614.529480 348.041840,615.178223 332.619110,614.137634 
	C312.430176,612.775330 292.644653,608.372070 273.394745,602.032227 
	C245.699860,592.911255 220.732117,578.525146 197.317780,561.397522 
	C167.108887,539.299744 141.982193,512.416687 121.920059,480.746460 
	C104.939400,453.940674 94.058037,424.764282 87.852974,393.841858 
	C83.091911,370.115540 82.802277,345.959473 83.846008,321.899231 
	C84.454559,307.871124 85.449623,293.787262 87.651161,279.854370 
	C88.742119,272.950043 92.576866,268.336914 99.042610,266.036316 
	C105.609459,263.699707 112.155289,263.724945 118.116920,267.812988 
	C120.997337,269.788177 122.282463,272.713684 122.392601,276.373016 
	C122.739662,287.904602 120.259087,299.124542 118.831688,310.452606 
	C118.453644,313.452850 118.502716,316.413269 118.325104,319.859619 
z"/>
<path fill="#ffffff" opacity="1.000000" stroke="none" 
	d="
M603.744263,674.258789 
	C597.976746,668.536133 592.387512,663.135803 586.827515,657.705444 
	C569.690247,640.967651 552.670837,624.107544 535.410400,607.497803 
	C504.253143,577.515015 472.917725,547.719971 442.172668,517.307861 
	C424.081238,499.412231 405.586548,481.920685 387.113892,464.415558 
	C376.750946,454.595428 366.061279,445.120178 355.522583,435.485321 
	C348.865784,429.399384 344.759003,422.525116 345.449097,412.807495 
	C346.010193,404.906555 350.162201,400.613831 356.592163,397.819305 
	C362.410797,395.290497 367.826813,396.424622 372.811432,400.566467 
	C384.757385,410.492615 395.026642,422.124817 406.113678,432.921753 
	C424.822083,451.140533 443.233215,469.667145 462.077057,487.743530 
	C480.435699,505.354523 498.693695,523.066284 516.973999,540.757141 
	C539.425110,562.484314 562.615662,583.448608 585.015808,605.226868 
	C607.674988,627.256958 629.963196,649.680359 651.976501,672.356140 
	C659.010742,679.601990 666.776428,686.237366 672.719421,694.522339 
	C680.016541,704.695129 675.210449,719.471680 663.802185,722.040161 
	C659.028870,723.114929 654.634888,721.542725 651.124573,718.822510 
	C635.722412,706.886780 621.603149,693.516602 608.525269,679.071472 
	C607.070251,677.464355 605.721436,675.811890 603.744263,674.258789 
z"/>
<path fill="#ffffff" opacity="1.000000" stroke="none" 
	d="
M513.901550,157.098022 
	C501.958099,147.833344 490.311798,138.780106 477.530975,131.288849 
	C458.230621,119.976288 437.743225,111.850365 416.050629,106.252922 
	C400.151184,102.150307 384.152557,100.340149 367.856903,100.428993 
	C362.517700,100.458107 357.245239,100.043213 351.985168,99.318665 
	C344.349640,98.266907 336.001862,82.475510 340.217163,76.820625 
	C344.278503,71.372345 349.979858,67.989052 356.739807,67.734840 
	C384.175140,66.703102 410.869476,71.379265 437.153748,78.878311 
	C460.136108,85.435303 481.573639,95.455635 501.723450,108.173347 
	C516.613403,117.571304 530.344360,128.524200 543.523926,140.241272 
	C557.604614,152.759399 570.237183,166.551788 581.715881,181.411972 
	C601.806763,207.421494 614.442810,237.028717 623.359497,268.434753 
	C626.667847,280.087280 629.412598,291.869598 631.001160,303.830170 
	C631.931702,310.836212 631.170776,318.066956 631.170776,325.673462 
	C621.742249,324.752686 612.694214,324.033966 603.611145,324.283691 
	C600.915283,324.357819 599.972778,322.823517 599.633728,320.244080 
	C597.369446,303.019623 595.037537,285.830475 589.850159,269.127716 
	C584.749573,252.704514 576.954529,237.584930 568.657043,222.670227 
	C559.415100,206.057724 547.448425,191.399231 534.911926,177.263016 
	C528.569763,170.111618 521.121033,163.941483 513.901550,157.098022 
z"/>
<path fill="#ffffff" opacity="1.000000" stroke="none" 
	d="
M553.879272,389.352905 
	C517.405212,389.354584 481.415344,389.181519 445.430176,389.513824 
	C438.768982,389.575287 435.336212,386.187805 432.396149,381.427856 
	C429.144440,376.163330 430.243042,370.696594 433.205383,365.833099 
	C436.224274,360.876770 440.853851,358.570984 446.985138,358.577850 
	C539.787964,358.681610 632.591003,358.647858 725.393982,358.656372 
	C732.509888,358.657013 738.313293,365.200073 738.338684,373.167328 
	C738.364685,381.326477 733.062927,387.108521 725.575928,387.366150 
	C673.473206,389.159210 621.353088,388.087463 569.241272,388.272919 
	C564.221375,388.290771 559.354248,389.473450 553.879272,389.352905 
z"/>
<path fill="#ffffff" opacity="1.000000" stroke="none" 
	d="
M650.999878,448.362701 
	C598.546448,448.363739 546.592957,448.332245 494.639740,448.427551 
	C490.602692,448.434937 486.686218,447.772217 482.807922,447.093231 
	C475.323730,445.783020 470.825317,434.899902 474.615601,427.816254 
	C477.730347,421.995056 482.302338,418.812561 489.286682,418.568268 
	C550.850403,416.414459 612.429932,418.253784 673.998657,417.709076 
	C677.950806,417.674072 681.968689,418.106232 685.853699,418.853241 
	C694.539612,420.523407 699.312012,430.967651 694.776672,438.896881 
	C691.513550,444.601868 687.463684,449.154663 679.461426,448.521362 
	C670.194824,447.788055 660.824951,448.358063 650.999878,448.362701 
z"/>
<path fill="#ffffff" opacity="1.000000" stroke="none" 
	d="
M626.125793,509.343811 
	C604.053040,507.313873 582.367310,509.494995 560.815613,508.091766 
	C549.063660,507.326599 537.251831,508.482758 525.546814,506.511688 
	C522.013672,505.916748 519.396301,504.539124 516.945374,502.115662 
	C512.527710,497.747650 508.694824,492.980438 506.356873,487.198883 
	C504.346405,482.227264 505.932434,479.903412 511.177979,479.650482 
	C511.344208,479.642456 511.511078,479.648712 511.677551,479.644318 
	C558.597778,478.403961 605.528381,478.620178 652.457397,478.673401 
	C662.390564,478.684662 669.148682,491.035034 664.369690,499.716919 
	C661.041870,505.762573 657.048767,508.780334 649.470581,508.667236 
	C641.915894,508.554413 634.245239,509.317474 626.125793,509.343811 
z"/>
<path fill="#ffffff" opacity="1.000000" stroke="none" 
	d="
M621.821777,546.898376 
	C622.459229,554.054626 623.751648,561.038513 617.099182,565.959534 
	C608.227295,572.522278 590.522949,570.030640 583.834717,561.351074 
	C581.100708,557.802979 577.984375,554.527832 575.923950,550.510132 
	C573.085327,544.974915 574.208191,542.083252 580.099487,540.416992 
	C586.870850,538.501770 593.781372,537.858215 600.772461,539.292236 
	C605.006714,540.160889 609.354126,539.334473 613.642883,540.499451 
	C617.292419,541.490845 620.081482,543.016357 621.821777,546.898376 
z"/>
<path fill="#ffffff" opacity="1.000000" stroke="none" 
	d="
M21.283577,138.056702 
	C14.594253,133.174774 12.956682,126.652435 13.211196,119.123642 
	C13.592444,107.845932 26.342381,102.651093 36.026112,103.683182 
	C45.123402,104.652763 51.329407,112.280220 51.348125,122.585365 
	C51.373432,136.521042 40.005215,144.661209 26.710789,140.204224 
	C24.987974,139.626663 23.314034,138.903320 21.283577,138.056702 
z"/>
<path fill="#ffffff" opacity="1.000000" stroke="none" 
	d="
M452.505310,296.733276 
	C465.742767,299.000488 470.918304,315.550262 465.092529,326.779663 
	C461.615753,333.481262 455.013000,336.633759 447.116516,335.248169 
	C439.432007,333.899750 431.468170,324.591248 430.702728,316.063019 
	C430.067596,308.986755 435.948639,300.359802 443.227539,297.420929 
	C446.153168,296.239716 449.119415,296.843903 452.505310,296.733276 
z"/>
<path fill="#ffffff" opacity="1.000000" stroke="none" 
	d="
M650.970825,573.816711 
	C646.623230,571.364685 643.410095,568.127747 640.965149,564.434082 
	C634.705811,554.978088 637.868652,544.502625 648.440918,538.397888 
	C656.037537,534.011414 668.290039,538.105286 672.704834,546.505066 
	C678.131470,556.829834 674.211853,569.279846 663.651611,573.768677 
	C659.861450,575.379761 655.466370,574.449951 650.970825,573.816711 
z"/>
</svg>